<svg
  xmlns="http://www.w3.org/2000/svg"
  width="16"
  height="16"
  viewBox="0 0 16 16"
  fill="none"
>
  <path
    fill-rule="evenodd"
    clip-rule="evenodd"
    d="M14.72 6.72H9.28V1.28C9.28 0.573075 8.70692 0 8 0C7.29308 0 6.72 0.573075 6.72 1.28V6.72H1.28C0.573075 6.72 0 7.29308 0 8C0 8.70692 0.573075 9.28 1.28 9.28H6.72V14.72C6.72 15.4269 7.29308 16 8 16C8.70692 16 9.28 15.4269 9.28 14.72V9.28H14.72C15.4269 9.28 16 8.70692 16 8C16 7.29308 15.4269 6.72 14.72 6.72Z"
    fill="#23221E"></path>
</svg>
