<?xml version="1.0" encoding="UTF-8"?>
<svg width="149px" height="27px" viewBox="0 0 149 27" version="1.1" xmlns="http://www.w3.org/2000/svg" xmlns:xlink="http://www.w3.org/1999/xlink">
    <!-- Generator: Sketch 62 (91390) - https://sketch.com -->
    <title>logo_type-W Copy</title>
    <desc>Created with Sketch.</desc>
    <g id="design" stroke="none" stroke-width="1" fill="none" fill-rule="evenodd">
        <g id="PC" transform="translate(-28.000000, -25.000000)" fill="#FFFFFF">
            <g id="Group-18" transform="translate(28.000000, 25.000000)">
                <g id="logo_type-W-Copy">
                    <g id="Page-1">
                        <path d="M12.2730535,15.9781055 C12.1731512,15.9781055 12.0717031,15.964549 11.9709059,15.9359747 C11.3793017,15.7686692 10.8244693,15.5007044 10.3218661,15.1394674 C7.95349684,13.437757 7.41428444,10.1306119 9.11978366,7.76747242 C9.94593061,6.62263522 11.1694091,5.86744693 12.5648693,5.64088232 C13.9602482,5.41431772 15.3605896,5.74357104 16.507921,6.56800319 C17.2945301,7.13323764 17.9096455,7.90076482 18.2865572,8.78754079 C18.5250863,9.34863522 18.2626392,9.99634536 17.7003224,10.2343559 C17.1381682,10.4722041 16.4888842,10.2104087 16.2504365,9.64939548 C16.0315137,9.13432832 15.6735573,8.68818032 15.2153732,8.35892699 C14.5475406,7.87900942 13.7323764,7.68735086 12.9200596,7.81926325 C12.1077428,7.95109447 11.395491,8.39074832 10.9145279,9.05712913 C9.92176855,10.4328333 10.2357125,12.3579425 11.6143325,13.3486248 C11.907694,13.5594411 12.2305869,13.7155442 12.5740623,13.8127129 C13.1615988,13.9788819 13.5030403,14.588926 13.3364279,15.1752664 C13.198452,15.6610287 12.7551556,15.9781055 12.2730535,15.9781055" id="Fill-1"></path>
                        <path d="M13.1630631,21.0264942 C12.0917161,21.0264942 11.010932,20.703735 10.0771541,20.0327271 C9.10676707,19.335418 8.39516615,18.3196519 8.07349357,17.1724606 C7.90899636,16.5855519 8.25239038,15.9766444 8.84057772,15.8125047 C9.42876506,15.648284 10.0389993,15.9910127 10.2034965,16.5779213 C10.3932133,17.2546116 10.7964837,17.8299932 11.3696206,18.2418033 C12.7482406,19.2324857 14.6776252,18.9193054 15.6704659,17.5436012 C16.6633066,16.167897 16.3493626,14.2427879 14.9706613,13.2521055 C14.8004693,13.129772 14.6183183,13.0248103 14.4292523,12.9400617 C13.8721421,12.6903617 13.6234438,12.0372127 13.8736878,11.4813136 C14.1240132,10.9253333 14.7785852,10.6771757 15.3356954,10.9269568 C15.6602967,11.0724258 15.9723695,11.2522325 16.2632091,11.4611817 C18.631497,13.1629733 19.1707907,16.4701185 17.4652915,18.8332579 C16.4322621,20.2646494 14.8088487,21.0264942 13.1630631,21.0264942" id="Fill-3"></path>
                        <path d="M18.0147301,0.0811606208 L8.48129532,0.0811606208 C7.33729942,0.0811606208 6.22641449,0.305208744 5.17931086,0.747135548 C4.16914182,1.1734764 3.26229199,1.78335812 2.48414373,2.55989592 C1.70591412,3.33635255 1.09470368,4.24123097 0.667433989,5.24920399 C0.224544381,6.2940313 8.1353712e-06,7.40250128 8.1353712e-06,8.54401023 L8.1353712e-06,18.0567201 C8.1353712e-06,19.1982291 0.224544381,20.3067802 0.667433989,21.3515263 C1.09470368,22.3594994 1.70591412,23.2643778 2.48414373,24.0408344 C3.26229199,24.8173722 4.16914182,25.4272539 5.17931086,25.8535948 C6.22641449,26.2955216 7.33729942,26.5195697 8.48129532,26.5195697 L18.0147301,26.5195697 C19.158726,26.5195697 20.2696923,26.2955216 21.3167145,25.8535948 C22.3268836,25.4272539 23.2337334,24.8173722 24.0118817,24.0408344 C24.7901113,23.2643778 25.4013217,22.3594994 25.8285914,21.3515263 C26.271481,20.3067802 26.4960173,19.1982291 26.4960173,18.0567201 L26.4960173,8.54401023 C26.4960173,7.40250128 26.271481,6.2940313 25.8285914,5.24920399 C25.4013217,4.24123097 24.7901113,3.33635255 24.0118817,2.55989592 C23.2337334,1.78335812 22.3268836,1.1734764 21.3167145,0.747135548 C20.2696923,0.305208744 19.158726,0.0811606208 18.0147301,0.0811606208 M18.0147301,2.28811581 C21.4773068,2.28811581 24.2842539,5.08896088 24.2842539,8.54401023 L24.2842539,18.0567201 C24.2842539,21.5117695 21.4773068,24.3126145 18.0147301,24.3126145 L8.48129532,24.3126145 C5.01871863,24.3126145 2.2117715,21.5117695 2.2117715,18.0567201 L2.2117715,8.54401023 C2.2117715,5.08896088 5.01871863,2.28811581 8.48129532,2.28811581 L18.0147301,2.28811581" id="Fill-5"></path>
                        <path d="M70.457684,9.72796656 C71.3007525,10.6495674 71.7225715,12.1534498 71.7225715,14.2402633 L71.7225715,23.4227457 C71.7225715,23.6783716 71.5149568,23.885535 71.258774,23.885535 L67.763005,23.885535 C67.5068221,23.885535 67.2992074,23.6783716 67.2992074,23.4227457 L67.2992074,14.8934123 C67.2992074,14.2728152 67.2189113,13.7912741 67.059214,13.4482207 C66.8987031,13.1050861 66.6705873,12.8696732 66.3736463,12.7427938 C66.0767052,12.6158332 65.6929598,12.5526776 65.2218404,12.5526776 C64.6753875,12.5526776 64.209068,12.6844277 63.8227193,12.9475218 C63.4362891,13.2109407 63.1304805,13.5772919 62.9041545,14.0473871 L62.9041545,14.357645 L62.9041545,23.4227457 C62.9041545,23.6783716 62.6965398,23.885535 62.440357,23.885535 L58.9589876,23.885535 C58.7028048,23.885535 58.4951901,23.6783716 58.4951901,23.4227457 L58.4951901,14.9214995 C58.4951901,14.2919729 58.4149753,13.8028012 58.2547899,13.4552019 C58.0943603,13.1076026 57.8636412,12.8696732 57.5623071,12.7427938 C57.2605662,12.6158332 56.8745428,12.5526776 56.4035048,12.5526776 C55.885363,12.5526776 55.4331991,12.6678676 55.0467689,12.8980851 C54.6604202,13.1286274 54.3450118,13.4552019 54.0998931,13.8780521 L54.0998931,23.4227457 C54.0998931,23.6783716 53.8921971,23.885535 53.6360142,23.885535 L50.1546448,23.885535 C49.898462,23.885535 49.6908473,23.6783716 49.6908473,23.4227457 L49.6908473,9.09056588 C49.6908473,8.83502114 49.898462,8.62777662 50.1546448,8.62777662 L53.4037494,8.62777662 C53.6453699,8.62777662 53.8464763,8.81285986 53.8660825,9.05314335 L53.9726559,10.3626072 C54.481442,9.71392296 55.1033911,9.21582177 55.8380965,8.86757306 C56.5732086,8.51997376 57.4070028,8.34593058 58.3394791,8.34593058 C59.2817178,8.34593058 60.091838,8.53661501 60.770328,8.91700976 C61.4484925,9.29781039 61.9716783,9.87846845 62.3388276,10.6584969 C62.8380139,9.91613451 63.4695628,9.34497415 64.232742,8.94542166 C64.9959212,8.545788 65.8766564,8.34593058 66.875436,8.34593058 C68.420343,8.34593058 69.6146154,8.80669042 70.457684,9.72796656" id="Fill-8"></path>
                        <path d="M81.7298672,20.4800928 C82.186831,20.2214633 82.5145237,19.9089324 82.7122133,19.5421754 L82.7122133,17.0465553 L81.1293141,17.0465553 C80.1871567,17.0465553 79.4901995,17.2602128 79.0379542,17.6881772 C78.5857903,18.1161416 78.3594643,18.65889 78.3594643,19.3167473 C78.3594643,19.7775883 78.5220903,20.1513265 78.8470984,20.4377185 C79.1721878,20.7246787 79.6029557,20.8678746 80.1402157,20.8678746 C80.7429653,20.8678746 81.272822,20.7387223 81.7298672,20.4800928 M86.6710476,23.8855431 L83.3880185,23.8855431 C83.1317544,23.8855431 82.9241397,23.6783798 82.9241397,23.4227538 L82.9241397,22.5318378 C82.0008564,23.6224489 80.7381654,24.1674703 79.1367176,24.1674703 C78.1849605,24.1674703 77.3137436,23.9723211 76.5224161,23.5825911 C75.7308445,23.1922927 75.1045022,22.6469466 74.6426572,21.9466339 C74.1811376,21.2464023 73.9504185,20.4587433 73.9504185,19.5846309 C73.9504185,17.9770856 74.5460904,16.7384891 75.7379222,15.8692474 C76.9295914,14.9995997 78.7033464,14.5645729 81.0586991,14.5645729 L82.7122133,14.5645729 L82.7122133,13.7325913 C82.7122133,13.0464034 82.5447873,12.5129091 82.2105049,12.1321084 C81.8758971,11.7517137 81.3600332,11.5609481 80.663076,11.5609481 C80.0411268,11.5609481 79.5582926,11.7089335 79.2143291,12.005229 C78.9564378,12.2273289 78.7952761,12.5221632 78.7308439,12.8896509 C78.6917942,13.1119943 78.5113516,13.2813292 78.2851883,13.2813292 L74.7958463,13.2814104 C74.5213588,13.2814104 74.3012157,13.0437245 74.3322114,12.7715385 C74.4147855,12.0490645 74.6760122,11.3824402 75.1162985,10.7713408 C75.6579515,10.0193996 76.430405,9.42688971 77.4339031,8.99454178 C78.4370757,8.5623562 79.5936814,8.34585752 80.9033948,8.34585752 C82.1184125,8.34585752 83.1948035,8.55058555 84.1324864,8.95947338 C85.0698438,9.36828002 85.8045492,9.97734998 86.3370093,10.7853844 C86.8691439,11.5941494 87.1353332,12.5858871 87.1353332,13.7606785 L87.1353332,20.0782674 C87.1353332,20.7566623 87.1348451,22.5665815 87.1346824,23.4234844 C87.134601,23.6788668 86.9270677,23.8855431 86.6710476,23.8855431" id="Fill-10"></path>
                        <path d="M109.246564,20.9883979 L109.246564,23.4306848 C109.246564,23.6339517 109.11591,23.8188725 108.919929,23.874641 C108.234524,24.0697902 107.485907,24.167446 106.674567,24.167446 C105.195475,24.167446 104.062218,23.7962242 103.27569,23.0535371 C102.489162,22.3108501 102.095817,21.1405233 102.095817,19.5422322 L102.095817,12.0827286 L100.468255,12.0827286 C100.212072,12.0827286 100.004457,11.8755652 100.004457,11.6199393 L100.004457,8.8087036 C100.004457,8.55307768 100.212072,8.34591434 100.468255,8.34591434 L102.095817,8.34591434 L102.095817,5.31168582 C102.095817,5.0560599 102.303432,4.84889656 102.559696,4.84889656 L106.041391,4.84889656 C106.297492,4.84889656 106.505188,5.0560599 106.505188,5.31168582 L106.505188,8.34591434 L108.598989,8.34591434 C108.85509,8.34591434 109.062786,8.55307768 109.062786,8.8087036 L109.062786,11.6199393 C109.062786,11.8755652 108.85509,12.0827286 108.598989,12.0827286 L106.505188,12.0827286 L106.505188,19.006465 C106.505188,19.608229 106.622744,20.0173604 106.858345,20.2332908 C107.093864,20.4497895 107.494287,20.5575923 108.059614,20.5575923 C108.298224,20.5575923 108.523086,20.5481758 108.734361,20.5290181 C109.009012,20.5042591 109.246564,20.7132084 109.246564,20.9883979" id="Fill-12"></path>
                        <path d="M98.5985693,8.87910017 L98.5534569,11.6249885 C98.5498773,11.8953886 98.31566,12.1042567 98.0458097,12.0795789 C97.5816868,12.0372858 97.2391063,12.022268 97.0205089,12.041507 C96.2337371,12.110832 95.6523835,12.3715721 95.1339163,12.7496938 C94.5647657,13.1649135 94.066881,14.067113 94.066881,14.7879635 L94.066881,23.4227457 C94.066881,23.6783716 93.859185,23.885535 93.6030021,23.885535 L90.1216327,23.885535 C89.8654499,23.885535 89.6578352,23.6783716 89.6578352,23.4227457 L89.6578352,9.09056588 C89.6578352,8.83502114 89.8654499,8.62777662 90.1216327,8.62777662 L93.368134,8.62777662 C93.6107308,8.62777662 93.8124066,8.81448339 93.8306298,9.05590336 L93.9313457,10.1957076 C94.3176945,9.49985959 94.782631,9.12433545 95.3738284,8.78720797 C96.0253089,8.41574268 96.5919375,8.34593058 97.3173686,8.34593058 C97.6552305,8.34593058 97.952497,8.36898481 98.2092493,8.41533679 C98.4357381,8.45616875 98.6016183,8.64936967 98.5985693,8.87910017" id="Fill-14"></path>
                        <path d="M43.2789545,11.9790414 L40.2751314,10.7883392 C38.4982036,10.0933842 37.214442,9.59146767 37.214442,8.36180066 C37.214442,7.1382219 38.2384412,6.4079549 39.9539469,6.4079549 C41.399277,6.4079549 42.63805,6.81254036 44.0062567,7.74648009 C44.2049224,7.88212661 44.4760744,7.83739816 44.6258466,7.64939257 L46.4692403,5.33463451 C46.6256021,5.13834887 46.5946877,4.85617812 46.4050522,4.69163264 C44.6815738,3.19538082 42.3145876,2.31591076 39.9539469,2.31591076 C35.592249,2.31591076 32.3030371,5.03931311 32.3030371,8.65079026 C32.3030371,12.3036676 35.2873353,13.8815833 36.570202,14.3905622 L39.6919066,15.7014873 C41.3598204,16.39766 42.4618378,16.8574457 42.4618378,18.1231553 C42.4618378,18.8853248 42.0757331,20.1637791 39.4908816,20.1637791 C37.9800618,20.1637791 36.1604233,19.4637099 34.6233263,18.3105114 C34.4259622,18.1623637 34.1486274,18.188665 33.9919401,18.3791059 L31.842331,20.9913771 C31.6822269,21.1858769 31.703867,21.4765712 31.8985464,21.6365708 C33.9542734,23.32578 36.6448847,24.2848033 39.3748712,24.2848033 C44.9101778,24.2848033 47.4310852,20.8813013 47.4310852,17.719138 C47.4310852,14.9396425 46.1117721,13.1158421 43.2789545,11.9790414" id="Fill-16"></path>
                        <path d="M143.157639,11.6136643 C142.629979,12.0802689 141.862244,12.313003 140.85419,12.313003 L137.575066,12.313003 L137.575066,7.0266849 L140.85419,7.0266849 C141.871437,7.0266849 142.641775,7.25998719 143.164961,7.72602352 C143.687902,8.19238456 143.949292,8.8446406 143.949292,9.68287281 C143.949292,10.5041391 143.685299,11.147628 143.157639,11.6136643 M148.922363,23.2121324 L144.899991,15.3535633 C146.077505,14.8174713 146.977602,14.0889902 147.599552,13.1676329 C148.221175,12.2459509 148.532191,11.042991 148.532191,9.55704868 C148.532191,8.22233882 148.223535,7.09146403 147.606629,6.16523611 C146.989155,5.23949524 146.103457,4.53877662 144.94921,4.06413554 C143.795127,3.58957564 142.426513,3.35172745 140.843695,3.35172745 L133.43522,3.35172745 C133.179118,3.35172745 132.971341,3.55889079 132.971341,3.81459788 L132.971341,23.4227051 C132.971341,23.678331 133.179118,23.8854944 133.43522,23.8854944 L137.100774,23.8854944 C137.356957,23.8854944 137.564653,23.678331 137.564653,23.4227051 L137.564653,16.0565548 L140.400074,16.0565548 L144.219956,23.6315732 C144.298869,23.7873516 144.458973,23.8854944 144.633883,23.8854944 L148.509249,23.8854944 C148.855816,23.8854944 149.080026,23.5201174 148.922363,23.2121324" id="Fill-18"></path>
                        <path d="M129.635041,3.79258272 L129.635041,23.4221207 C129.635041,23.6780713 129.427101,23.8855593 129.170593,23.8855593 L125.515127,23.8855593 C125.2587,23.8855593 125.05076,23.6780713 125.05076,23.4221207 L125.05076,15.9980913 L117.240478,15.9980913 L117.240478,23.4221207 C117.240478,23.6780713 117.032619,23.8855593 116.776111,23.8855593 L113.10657,23.8855593 C112.850143,23.8855593 112.642203,23.6780713 112.642203,23.4221207 L112.642203,3.79258272 C112.642203,3.53671327 112.850143,3.32922522 113.10657,3.32922522 L116.776111,3.32922522 C117.032619,3.32922522 117.240478,3.53671327 117.240478,3.79258272 L117.240478,12.3129867 L125.05076,12.3129867 L125.05076,3.79258272 C125.05076,3.53671327 125.2587,3.32922522 125.515127,3.32922522 L129.170593,3.32922522 C129.427101,3.32922522 129.635041,3.53671327 129.635041,3.79258272" id="Fill-20"></path>
                    </g>
                </g>
            </g>
        </g>
    </g>
</svg>