<svg width="540" height="540" viewBox="0 0 540 540" fill="none" xmlns="http://www.w3.org/2000/svg">
<rect width="540" height="540" fill="white"/>
<path d="M269.743 332.191C284.092 332.191 295.704 320.579 295.704 306.23H243.782C243.782 320.579 255.393 332.191 269.743 332.191Z" fill="#6A3C98"/>
<path d="M211.712 274.16C202.865 274.16 195.677 281.348 195.677 290.195H227.747C227.747 281.348 220.559 274.16 211.712 274.16Z" fill="#6A3C98"/>
<path d="M327.879 274.16C319.032 274.16 311.844 281.348 311.844 290.195H343.914C343.914 281.348 336.726 274.16 327.879 274.16Z" fill="#6A3C98"/>
<path d="M269.743 193.986C276.378 193.986 281.749 188.615 281.749 182.006C281.749 175.398 276.378 170 269.743 170C263.108 170 257.736 175.371 257.736 182.006C257.736 188.641 263.108 193.986 269.743 193.986Z" fill="#6A3C98"/>
<path d="M382.013 287.931C379.327 269.631 375.272 251.122 372.376 238.826C368.901 224.16 356.473 213.681 341.439 212.759C326.668 211.838 302.26 210.732 269.743 210.732C237.226 210.732 212.792 211.838 198.047 212.759C183.013 213.707 170.585 224.186 167.11 238.826C164.187 251.122 160.159 269.631 157.473 287.931C155.63 300.332 154.156 314.945 153.076 331.401C152.47 340.564 155.498 349.41 161.633 356.256C167.768 363.128 176.22 367.13 185.409 367.578C205.63 368.526 236.646 369.658 269.743 369.658C302.839 369.658 333.856 368.526 354.077 367.578C363.266 367.157 371.718 363.128 377.853 356.256C383.987 349.41 387.015 340.564 386.41 331.401C385.33 314.945 383.856 300.332 382.039 287.931H382.013ZM365.873 345.566C362.634 349.2 358.158 351.306 353.313 351.543C333.276 352.491 302.497 353.597 269.717 353.597C236.936 353.597 206.183 352.491 186.12 351.543C181.249 351.306 176.799 349.2 173.561 345.566C170.322 341.959 168.716 337.299 169.032 332.454C170.085 316.419 171.507 302.228 173.271 290.274C175.878 272.528 179.827 254.518 182.644 242.512C184.461 234.771 191.043 229.242 198.969 228.741C213.503 227.846 237.568 226.767 269.69 226.767C301.812 226.767 325.878 227.846 340.412 228.741C348.337 229.242 354.919 234.771 356.736 242.512C359.58 254.518 363.503 272.528 366.11 290.274C367.874 302.228 369.296 316.419 370.349 332.454C370.665 337.299 369.059 341.959 365.82 345.566H365.873Z" fill="#6A3C98"/>
</svg>
